# xmcd
#
# Track frame offsets:
#	150
#	23745
#	42975
#	58920
#	74040
#	109950
#	124575
#	158700
#	180975
#	193650
#
# Disc length: 2920 seconds
#
# Revision: 1
# Processed by: cddbd v1.5.2PL0 Copyright (c) Steve Scherf et al.
# Submitted via: audiograbber 1.83.01
#
DISCID=8b0b660a
DTITLE=Alabama - Greatest Hits
DYEAR=1986
DGENRE=Country
TTITLE0=My Homes In Alabama (Live)
TTITLE1=Tennessee River (Live)
TTITLE2=Why Lady Why
TTITLE3=Old Flame
TTITLE4=Feels So Right
TTITLE5=Love In The First Degree
TTITLE6=Mountain Music
TTITLE7=40 Hour Week
TTITLE8=Shi And I
TTITLE9=The Fas
EXTD=
EXTT0=
EXTT1=
EXTT2=
EXTT3=
EXTT4=
EXTT5=
EXTT6=
EXTT7=
EXTT8=
EXTT9=
PLAYORDER=
